<svg width="2417" height="1503" viewBox="0 0 2417 1503" fill="none" xmlns="http://www.w3.org/2000/svg">
<path d="M671.347 1501.71C967.839 1501.71 1208.19 1165.71 1208.19 751.238C1208.19 336.764 967.839 0.76709 671.347 0.76709C374.855 0.76709 134.5 336.764 134.5 751.238C134.5 1165.71 374.855 1501.71 671.347 1501.71Z" stroke="url(#paint0_linear_405_28)" stroke-miterlimit="10"/>
<path d="M751.497 1501.71C1003.72 1501.71 1208.19 1165.71 1208.19 751.238C1208.19 336.764 1003.72 0.76709 751.497 0.76709C499.274 0.76709 294.807 336.764 294.807 751.238C294.807 1165.71 499.274 1501.71 751.497 1501.71Z" stroke="url(#paint1_linear_405_28)" stroke-miterlimit="10"/>
<path d="M831.643 1501.71C1039.6 1501.71 1208.19 1165.71 1208.19 751.238C1208.19 336.764 1039.6 0.76709 831.643 0.76709C623.684 0.76709 455.1 336.764 455.1 751.238C455.1 1165.71 623.684 1501.71 831.643 1501.71Z" stroke="url(#paint2_linear_405_28)" stroke-miterlimit="10"/>
<path d="M911.79 1501.71C1075.48 1501.71 1208.19 1165.71 1208.19 751.238C1208.19 336.764 1075.48 0.76709 911.79 0.76709C748.094 0.76709 615.393 336.764 615.393 751.238C615.393 1165.71 748.094 1501.71 911.79 1501.71Z" stroke="url(#paint3_linear_405_28)" stroke-miterlimit="10"/>
<path d="M991.947 1501.71C1111.37 1501.71 1208.19 1165.71 1208.19 751.238C1208.19 336.764 1111.37 0.76709 991.947 0.76709C872.52 0.76709 775.707 336.764 775.707 751.238C775.707 1165.71 872.52 1501.71 991.947 1501.71Z" stroke="url(#paint4_linear_405_28)" stroke-miterlimit="10"/>
<path d="M1072.09 1501.71C1147.25 1501.71 1208.19 1165.71 1208.19 751.238C1208.19 336.764 1147.25 0.76709 1072.09 0.76709C996.931 0.76709 936 336.764 936 751.238C936 1165.71 996.931 1501.71 1072.09 1501.71Z" stroke="url(#paint5_linear_405_28)" stroke-miterlimit="10"/>
<path d="M1152.24 1501.71C1183.14 1501.71 1208.19 1165.71 1208.19 751.238C1208.19 336.764 1183.14 0.76709 1152.24 0.76709C1121.34 0.76709 1096.29 336.764 1096.29 751.238C1096.29 1165.71 1121.34 1501.71 1152.24 1501.71Z" stroke="url(#paint6_linear_405_28)" stroke-miterlimit="10"/>
<path d="M1746.47 1501.71C2044.72 1501.71 2286.5 1165.71 2286.5 751.238C2286.5 336.764 2044.72 0.76709 1746.47 0.76709C1448.22 0.76709 1206.44 336.764 1206.44 751.238C1206.44 1165.71 1448.22 1501.71 1746.47 1501.71Z" stroke="url(#paint7_linear_405_28)" stroke-miterlimit="10"/>
<path d="M1665.84 1501.71C1919.56 1501.71 2125.24 1165.71 2125.24 751.238C2125.24 336.764 1919.56 0.76709 1665.84 0.76709C1412.13 0.76709 1206.45 336.764 1206.45 751.238C1206.45 1165.71 1412.13 1501.71 1665.84 1501.71Z" stroke="url(#paint8_linear_405_28)" stroke-miterlimit="10"/>
<path d="M1585.22 1501.71C1794.41 1501.71 1963.99 1165.71 1963.99 751.238C1963.99 336.764 1794.41 0.76709 1585.22 0.76709C1376.02 0.76709 1206.44 336.764 1206.44 751.238C1206.44 1165.71 1376.02 1501.71 1585.22 1501.71Z" stroke="url(#paint9_linear_405_28)" stroke-miterlimit="10"/>
<path d="M1504.59 1501.71C1669.26 1501.71 1802.75 1165.71 1802.75 751.238C1802.75 336.764 1669.26 0.76709 1504.59 0.76709C1339.93 0.76709 1206.44 336.764 1206.44 751.238C1206.44 1165.71 1339.93 1501.71 1504.59 1501.71Z" stroke="url(#paint10_linear_405_28)" stroke-miterlimit="10"/>
<path d="M1423.97 1501.71C1544.1 1501.71 1641.49 1165.71 1641.49 751.238C1641.49 336.764 1544.1 0.76709 1423.97 0.76709C1303.83 0.76709 1206.45 336.764 1206.45 751.238C1206.45 1165.71 1303.83 1501.71 1423.97 1501.71Z" stroke="url(#paint11_linear_405_28)" stroke-miterlimit="10"/>
<path d="M1343.34 1501.71C1418.95 1501.71 1480.24 1165.71 1480.24 751.238C1480.24 336.764 1418.95 0.76709 1343.34 0.76709C1267.73 0.76709 1206.44 336.764 1206.44 751.238C1206.44 1165.71 1267.73 1501.71 1343.34 1501.71Z" stroke="url(#paint12_linear_405_28)" stroke-miterlimit="10"/>
<path d="M1262.72 1501.71C1293.8 1501.71 1319 1165.71 1319 751.238C1319 336.764 1293.8 0.76709 1262.72 0.76709C1231.64 0.76709 1206.44 336.764 1206.44 751.238C1206.44 1165.71 1231.64 1501.71 1262.72 1501.71Z" stroke="url(#paint13_linear_405_28)" stroke-miterlimit="10"/>
<path d="M1206.44 1501.71C1214.59 1501.71 1221.2 1165.71 1221.2 751.238C1221.2 336.764 1214.59 0.76709 1206.44 0.76709C1198.29 0.76709 1191.68 336.764 1191.68 751.238C1191.68 1165.71 1198.29 1501.71 1206.44 1501.71Z" stroke="url(#paint14_linear_405_28)" stroke-miterlimit="10"/>
<path d="M1811.92 1501.44C2145.35 1501.44 2415.66 1165.44 2415.66 750.971C2415.66 336.497 2145.35 0.5 1811.92 0.5C1478.48 0.5 1208.18 336.497 1208.18 750.971C1208.18 1165.44 1478.48 1501.44 1811.92 1501.44Z" stroke="url(#paint15_linear_405_28)" stroke-miterlimit="10"/>
<path d="M604.238 1501.44C937.674 1501.44 1207.98 1165.44 1207.98 750.971C1207.98 336.497 937.674 0.5 604.238 0.5C270.803 0.5 0.5 336.497 0.5 750.971C0.5 1165.44 270.803 1501.44 604.238 1501.44Z" stroke="url(#paint16_linear_405_28)" stroke-miterlimit="10"/>
<defs>
<linearGradient id="paint0_linear_405_28" x1="671.347" y1="0.76709" x2="671.347" y2="1501.71" gradientUnits="userSpaceOnUse">
<stop offset="0.25" stop-color="#004AFF"/>
<stop offset="0.360577" stop-color="#004AFF" stop-opacity="0.4"/>
</linearGradient>
<linearGradient id="paint1_linear_405_28" x1="751.497" y1="0.76709" x2="751.497" y2="1501.71" gradientUnits="userSpaceOnUse">
<stop offset="0.25" stop-color="#004AFF"/>
<stop offset="0.360577" stop-color="#004AFF" stop-opacity="0.4"/>
</linearGradient>
<linearGradient id="paint2_linear_405_28" x1="831.643" y1="0.76709" x2="831.643" y2="1501.71" gradientUnits="userSpaceOnUse">
<stop offset="0.25" stop-color="#004AFF"/>
<stop offset="0.360577" stop-color="#004AFF" stop-opacity="0.4"/>
</linearGradient>
<linearGradient id="paint3_linear_405_28" x1="911.79" y1="0.76709" x2="911.79" y2="1501.71" gradientUnits="userSpaceOnUse">
<stop offset="0.25" stop-color="#004AFF"/>
<stop offset="0.360577" stop-color="#004AFF" stop-opacity="0.4"/>
</linearGradient>
<linearGradient id="paint4_linear_405_28" x1="991.947" y1="0.76709" x2="991.947" y2="1501.71" gradientUnits="userSpaceOnUse">
<stop offset="0.25" stop-color="#004AFF"/>
<stop offset="0.360577" stop-color="#004AFF" stop-opacity="0.4"/>
</linearGradient>
<linearGradient id="paint5_linear_405_28" x1="1072.09" y1="0.76709" x2="1072.09" y2="1501.71" gradientUnits="userSpaceOnUse">
<stop offset="0.25" stop-color="#004AFF"/>
<stop offset="0.360577" stop-color="#004AFF" stop-opacity="0.4"/>
</linearGradient>
<linearGradient id="paint6_linear_405_28" x1="1152.24" y1="0.76709" x2="1152.24" y2="1501.71" gradientUnits="userSpaceOnUse">
<stop offset="0.25" stop-color="#004AFF"/>
<stop offset="0.360577" stop-color="#004AFF" stop-opacity="0.4"/>
</linearGradient>
<linearGradient id="paint7_linear_405_28" x1="1746.47" y1="0.76709" x2="1746.47" y2="1501.71" gradientUnits="userSpaceOnUse">
<stop offset="0.25" stop-color="#004AFF"/>
<stop offset="0.360577" stop-color="#004AFF" stop-opacity="0.4"/>
</linearGradient>
<linearGradient id="paint8_linear_405_28" x1="1665.84" y1="0.76709" x2="1665.84" y2="1501.71" gradientUnits="userSpaceOnUse">
<stop offset="0.25" stop-color="#004AFF"/>
<stop offset="0.360577" stop-color="#004AFF" stop-opacity="0.4"/>
</linearGradient>
<linearGradient id="paint9_linear_405_28" x1="1585.22" y1="0.76709" x2="1585.22" y2="1501.71" gradientUnits="userSpaceOnUse">
<stop offset="0.25" stop-color="#004AFF"/>
<stop offset="0.360577" stop-color="#004AFF" stop-opacity="0.4"/>
</linearGradient>
<linearGradient id="paint10_linear_405_28" x1="1504.59" y1="0.76709" x2="1504.59" y2="1501.71" gradientUnits="userSpaceOnUse">
<stop offset="0.25" stop-color="#004AFF"/>
<stop offset="0.360577" stop-color="#004AFF" stop-opacity="0.4"/>
</linearGradient>
<linearGradient id="paint11_linear_405_28" x1="1423.97" y1="0.76709" x2="1423.97" y2="1501.71" gradientUnits="userSpaceOnUse">
<stop offset="0.25" stop-color="#004AFF"/>
<stop offset="0.360577" stop-color="#004AFF" stop-opacity="0.4"/>
</linearGradient>
<linearGradient id="paint12_linear_405_28" x1="1343.34" y1="0.76709" x2="1343.34" y2="1501.71" gradientUnits="userSpaceOnUse">
<stop offset="0.25" stop-color="#004AFF"/>
<stop offset="0.360577" stop-color="#004AFF" stop-opacity="0.4"/>
</linearGradient>
<linearGradient id="paint13_linear_405_28" x1="1262.72" y1="0.76709" x2="1262.72" y2="1501.71" gradientUnits="userSpaceOnUse">
<stop offset="0.25" stop-color="#004AFF"/>
<stop offset="0.360577" stop-color="#004AFF" stop-opacity="0.4"/>
</linearGradient>
<linearGradient id="paint14_linear_405_28" x1="1206.44" y1="0.76709" x2="1206.44" y2="1501.71" gradientUnits="userSpaceOnUse">
<stop offset="0.25" stop-color="#004AFF"/>
<stop offset="0.360577" stop-color="#004AFF" stop-opacity="0.4"/>
</linearGradient>
<linearGradient id="paint15_linear_405_28" x1="1811.92" y1="0.5" x2="1811.92" y2="1501.44" gradientUnits="userSpaceOnUse">
<stop offset="0.25" stop-color="#004AFF"/>
<stop offset="0.360577" stop-color="#004AFF" stop-opacity="0.4"/>
</linearGradient>
<linearGradient id="paint16_linear_405_28" x1="604.238" y1="0.5" x2="604.238" y2="1501.44" gradientUnits="userSpaceOnUse">
<stop offset="0.25" stop-color="#004AFF"/>
<stop offset="0.360577" stop-color="#004AFF" stop-opacity="0.4"/>
</linearGradient>
</defs>
</svg>
