<svg width="819" height="652" viewBox="0 0 819 652" fill="none" xmlns="http://www.w3.org/2000/svg">
<path d="M409.646 325.708L818.292 533.494" stroke="#004AFF" stroke-miterlimit="10"/>
<path d="M409.646 325.709L760.702 517.902" stroke="#004AFF" stroke-miterlimit="10"/>
<path d="M409.645 325.71L703.111 502.311" stroke="#004AFF" stroke-miterlimit="10"/>
<path d="M409.645 325.709L645.521 486.714" stroke="#004AFF" stroke-miterlimit="10"/>
<path d="M409.646 325.708L587.932 471.121" stroke="#004AFF" stroke-miterlimit="10"/>
<path d="M409.646 325.709L530.341 455.527" stroke="#004AFF" stroke-miterlimit="10"/>
<path d="M409.647 325.709L472.752 439.935" stroke="#004AFF" stroke-miterlimit="10"/>
<path d="M409.646 325.709L415.161 424.343" stroke="#004AFF" stroke-miterlimit="10"/>
<path d="M409.646 325.709L357.571 408.747" stroke="#004AFF" stroke-miterlimit="10"/>
<path d="M409.646 325.709L299.983 393.155" stroke="#004AFF" stroke-miterlimit="10"/>
<path d="M409.646 325.709L242.393 377.559" stroke="#004AFF" stroke-miterlimit="10"/>
<path d="M409.646 325.709L184.803 361.968" stroke="#004AFF" stroke-miterlimit="10"/>
<path d="M409.646 325.709L1.0001 117.924" stroke="#004AFF" stroke-miterlimit="10"/>
<path d="M409.646 325.709L58.59 133.516" stroke="#004AFF" stroke-miterlimit="10"/>
<path d="M409.646 325.709L116.18 149.111" stroke="#004AFF" stroke-miterlimit="10"/>
<path d="M409.646 325.709L173.77 164.704" stroke="#004AFF" stroke-miterlimit="10"/>
<path d="M409.646 325.709L231.36 180.296" stroke="#004AFF" stroke-miterlimit="10"/>
<path d="M409.646 325.709L288.951 195.891" stroke="#004AFF" stroke-miterlimit="10"/>
<path d="M409.646 325.709L346.541 211.483" stroke="#004AFF" stroke-miterlimit="10"/>
<path d="M409.646 325.709L404.131 227.079" stroke="#004AFF" stroke-miterlimit="10"/>
<path d="M409.646 325.709L461.721 242.671" stroke="#004AFF" stroke-miterlimit="10"/>
<path d="M409.644 325.709L519.309 258.263" stroke="#004AFF" stroke-miterlimit="10"/>
<path d="M409.645 325.709L576.898 273.859" stroke="#004AFF" stroke-miterlimit="10"/>
<path d="M409.646 325.709L634.488 289.451" stroke="#004AFF" stroke-miterlimit="10"/>
</svg>
