<svg width="537" height="560" viewBox="0 0 537 560" fill="none" xmlns="http://www.w3.org/2000/svg">
<path d="M411.493 55.0405L86.7982 106.457L254.655 220.513L517.38 190.897L411.493 55.0405Z" stroke="#004AFF" stroke-miterlimit="10"/>
<path d="M391.549 89.586L79.1943 139.574L245.044 246.701L501.103 216.529L391.549 89.586Z" stroke="#004AFF" stroke-miterlimit="10"/>
<path d="M371.605 124.119L71.6044 172.691L235.448 272.89L484.822 242.166L371.605 124.119Z" stroke="#004AFF" stroke-miterlimit="10"/>
<path d="M351.675 158.667L63.9955 205.817L225.85 299.081L468.541 267.797L351.675 158.667Z" stroke="#004AFF" stroke-miterlimit="10"/>
<path d="M331.732 193.211L56.3921 238.932L216.258 325.261L452.281 293.429L331.732 193.211Z" stroke="#004AFF" stroke-miterlimit="10"/>
<path d="M311.785 227.755L48.7851 272.048L206.66 351.452L436 319.059L311.785 227.755Z" stroke="#004AFF" stroke-miterlimit="10"/>
<path d="M291.839 262.299L41.1942 305.166L197.063 377.642L419.718 344.698L291.839 262.299Z" stroke="#004AFF" stroke-miterlimit="10"/>
<path d="M271.897 296.835L33.5889 338.293L187.469 403.833L403.441 370.329L271.897 296.835Z" stroke="#004AFF" stroke-miterlimit="10"/>
<path d="M251.95 331.38L25.9813 371.41L177.871 430.024L387.177 395.963L251.95 331.38Z" stroke="#004AFF" stroke-miterlimit="10"/>
<path d="M232.004 365.925L18.391 404.529L168.275 456.205L370.895 421.602L232.004 365.925Z" stroke="#004AFF" stroke-miterlimit="10"/>
<path d="M212.06 400.47L10.787 437.645L158.681 482.396L354.617 447.233L212.06 400.47Z" stroke="#004AFF" stroke-miterlimit="10"/>
<path d="M338.349 472.894L192.128 435.036L3.19208 470.792L149.079 508.615L338.349 472.894Z" stroke="#004AFF" stroke-miterlimit="10"/>
</svg>
