<svg width="735" height="681" viewBox="0 0 735 681" fill="none" xmlns="http://www.w3.org/2000/svg">
<path d="M392.096 354.73C453.486 248.399 492.072 155.744 478.28 147.781C464.488 139.818 403.54 219.562 342.149 325.894C280.759 432.226 242.173 524.88 255.965 532.843C269.757 540.806 330.705 461.062 392.096 354.73Z" stroke="#004AFF"/>
<path d="M413.095 366.853C471.671 265.397 498.573 171.267 473.183 156.608C447.793 141.949 379.725 212.312 321.149 313.768C262.573 415.225 235.671 509.355 261.061 524.014C286.451 538.673 354.519 468.31 413.095 366.853Z" stroke="#004AFF"/>
<path d="M434.095 378.978C489.856 282.396 505.076 186.79 468.089 165.435C431.101 144.08 355.913 205.064 300.152 301.646C244.39 398.228 229.171 493.835 266.158 515.189C303.145 536.544 378.333 475.56 434.095 378.978Z" stroke="#004AFF"/>
<path d="M455.094 391.101C508.041 299.395 511.577 202.312 462.991 174.262C414.406 146.211 332.098 197.814 279.151 289.521C226.205 381.228 222.669 478.31 271.254 506.361C319.839 534.411 402.147 482.808 455.094 391.101Z" stroke="#004AFF"/>
<path d="M476.092 403.225C526.225 316.393 518.078 217.835 457.896 183.088C397.713 148.342 308.285 190.566 258.153 277.398C208.02 364.23 216.167 462.789 276.35 497.535C336.532 532.282 425.96 490.058 476.092 403.225Z" stroke="#004AFF"/>
<path d="M497.091 415.349C544.409 333.392 524.579 233.357 452.798 191.915C381.018 150.473 284.47 183.316 237.153 265.273C189.835 347.23 209.665 447.265 281.446 488.707C353.226 530.149 449.774 497.306 497.091 415.349Z" stroke="#004AFF"/>
<path d="M518.091 427.473C562.594 350.391 531.08 248.881 447.703 200.743C364.326 152.605 260.658 176.069 216.155 253.15C171.652 330.232 203.166 431.742 286.543 479.88C369.92 528.018 473.588 504.554 518.091 427.473Z" stroke="#004AFF"/>
<path d="M539.09 439.597C580.779 367.39 537.582 264.403 442.606 209.569C347.631 154.735 236.843 168.819 195.155 241.026C153.466 313.233 196.663 416.22 291.638 471.054C386.613 525.887 497.401 511.804 539.09 439.597Z" stroke="#004AFF"/>
<path d="M560.088 451.721C598.962 384.389 544.082 279.926 437.51 218.397C330.938 156.867 213.03 161.571 174.156 228.903C135.282 296.235 190.162 400.697 296.735 462.227C403.307 523.756 521.214 519.053 560.088 451.721Z" stroke="#004AFF"/>
<path d="M581.088 463.845C617.147 401.389 550.583 295.45 432.413 227.225C314.243 158.999 189.215 154.322 153.156 216.779C117.097 279.235 183.661 385.174 301.831 453.399C420.001 521.625 545.029 526.302 581.088 463.845Z" stroke="#004AFF"/>
<path d="M602.086 475.968C635.331 418.386 557.084 310.971 427.317 236.05C297.55 161.129 165.403 147.073 132.158 204.655C98.9127 262.237 177.16 369.652 306.927 444.573C436.694 519.494 568.841 533.55 602.086 475.968Z" stroke="#004AFF"/>
<path d="M623.086 488.092C653.516 435.386 563.586 326.495 422.221 244.878C280.856 163.26 141.588 139.824 111.158 192.53C80.7276 245.237 170.658 354.128 312.023 435.745C453.388 517.362 592.656 540.799 623.086 488.092Z" stroke="#004AFF"/>
</svg>
