<svg width="467" height="344" viewBox="0 0 467 344" fill="none" xmlns="http://www.w3.org/2000/svg">
<ellipse opacity="0.5" cx="213.342" cy="176.346" rx="20.3247" ry="129.964" transform="rotate(-12.3725 213.342 176.346)" stroke="url(#paint0_linear_1377_3636)" stroke-width="1.5"/>
<ellipse opacity="0.5" cx="20.3247" cy="129.964" rx="20.3247" ry="129.964" transform="matrix(-0.976775 0.214267 0.214267 0.976775 245.053 36.3354)" stroke="url(#paint1_linear_1377_3636)" stroke-width="1.5"/>
<ellipse opacity="0.5" cx="179.689" cy="183.73" rx="54.7772" ry="129.964" transform="rotate(-12.3725 179.689 183.73)" stroke="url(#paint2_linear_1377_3636)" stroke-width="1.5"/>
<ellipse opacity="0.5" cx="54.7772" cy="129.964" rx="54.7772" ry="129.964" transform="matrix(-0.976775 0.214267 0.214267 0.976775 312.358 21.5718)" stroke="url(#paint3_linear_1377_3636)" stroke-width="1.5"/>
<ellipse opacity="0.5" cx="154.628" cy="189.226" rx="80.4349" ry="129.964" transform="rotate(-12.3725 154.628 189.226)" stroke="url(#paint4_linear_1377_3636)" stroke-width="1.5"/>
<ellipse opacity="0.5" cx="80.4349" cy="129.964" rx="80.4349" ry="129.964" transform="matrix(-0.976775 0.214267 0.214267 0.976775 362.48 10.5776)" stroke="url(#paint5_linear_1377_3636)" stroke-width="1.5"/>
<ellipse opacity="0.5" cx="137.353" cy="193.015" rx="98.1202" ry="122.788" transform="rotate(-12.3725 137.353 193.015)" stroke="url(#paint6_linear_1377_3636)" stroke-width="1.5"/>
<ellipse opacity="0.5" cx="98.1202" cy="122.788" rx="98.1202" ry="122.788" transform="matrix(-0.976775 0.214267 0.214267 0.976775 398.568 10.0073)" stroke="url(#paint7_linear_1377_3636)" stroke-width="1.5"/>
<ellipse opacity="0.5" cx="130.521" cy="194.515" rx="105.115" ry="119.367" transform="rotate(-12.3725 130.521 194.515)" stroke="url(#paint8_linear_1377_3636)" stroke-width="1.5"/>
<ellipse opacity="0.5" cx="105.115" cy="119.367" rx="105.115" ry="119.367" transform="matrix(-0.976775 0.214267 0.214267 0.976775 412.965 10.353)" stroke="url(#paint9_linear_1377_3636)" stroke-width="1.5"/>
<ellipse opacity="0.5" cx="132.891" cy="189.172" rx="101.655" ry="110.481" transform="rotate(-12.3725 132.891 189.172)" stroke="url(#paint10_linear_1377_3636)" stroke-width="1.5"/>
<ellipse opacity="0.5" cx="101.655" cy="110.481" rx="101.655" ry="110.481" transform="matrix(-0.976775 0.214267 0.214267 0.976775 407.101 15.9116)" stroke="url(#paint11_linear_1377_3636)" stroke-width="1.5"/>
<ellipse opacity="0.5" cx="129.78" cy="184.722" rx="103.741" ry="102.545" transform="rotate(-12.3725 129.78 184.722)" stroke="url(#paint12_linear_1377_3636)" stroke-width="1.5"/>
<ellipse opacity="0.5" cx="103.741" cy="102.545" rx="103.741" ry="102.545" transform="matrix(-0.976775 0.214267 0.214267 0.976775 411.801 17.8735)" stroke="url(#paint13_linear_1377_3636)" stroke-width="1.5"/>
<ellipse opacity="0.5" cx="128.918" cy="180.792" rx="103.741" ry="96.2496" transform="rotate(-12.3725 128.918 180.792)" stroke="url(#paint14_linear_1377_3636)" stroke-width="1.5"/>
<ellipse opacity="0.5" cx="103.741" cy="96.2496" rx="103.741" ry="96.2496" transform="matrix(-0.976775 0.214267 0.214267 0.976775 412.288 20.0952)" stroke="url(#paint15_linear_1377_3636)" stroke-width="1.5"/>
<ellipse opacity="0.5" cx="131.129" cy="174.739" rx="100.284" ry="90.8086" transform="rotate(-12.3725 131.129 174.739)" stroke="url(#paint16_linear_1377_3636)" stroke-width="1.5"/>
<ellipse opacity="0.5" cx="100.284" cy="90.8086" rx="100.284" ry="90.8086" transform="matrix(-0.976775 0.214267 0.214267 0.976775 405.536 21.5757)" stroke="url(#paint17_linear_1377_3636)" stroke-width="1.5"/>
<ellipse opacity="0.5" cx="137.427" cy="168.202" rx="92.7303" ry="85.7728" transform="rotate(-12.3725 137.427 168.202)" stroke="url(#paint18_linear_1377_3636)" stroke-width="1.5"/>
<ellipse opacity="0.5" cx="92.7303" cy="85.7728" rx="92.7303" ry="85.7728" transform="matrix(-0.976775 0.214267 0.214267 0.976775 390.779 24.813)" stroke="url(#paint19_linear_1377_3636)" stroke-width="1.5"/>
<ellipse opacity="0.5" cx="144.399" cy="162.374" rx="84.673" ry="81.5762" transform="rotate(-12.3725 144.399 162.374)" stroke="url(#paint20_linear_1377_3636)" stroke-width="1.5"/>
<ellipse opacity="0.5" cx="84.673" cy="81.5762" rx="84.673" ry="81.5762" transform="matrix(-0.976775 0.214267 0.214267 0.976775 375.039 28.2661)" stroke="url(#paint21_linear_1377_3636)" stroke-width="1.5"/>
<ellipse opacity="0.5" cx="153.317" cy="156.809" rx="74.7692" ry="78.0513" transform="rotate(-12.3725 153.317 156.809)" stroke="url(#paint22_linear_1377_3636)" stroke-width="1.5"/>
<ellipse opacity="0.5" cx="74.7692" cy="78.0513" rx="74.7692" ry="78.0513" transform="matrix(-0.976775 0.214267 0.214267 0.976775 355.691 32.5102)" stroke="url(#paint23_linear_1377_3636)" stroke-width="1.5"/>
<ellipse opacity="0.5" cx="162.447" cy="153.777" rx="65.2009" ry="77.0441" transform="rotate(-12.3725 162.447 153.777)" stroke="url(#paint24_linear_1377_3636)" stroke-width="1.5"/>
<ellipse opacity="0.5" cx="65.2009" cy="77.0441" rx="65.2009" ry="77.0441" transform="matrix(-0.976775 0.214267 0.214267 0.976775 336.999 36.6108)" stroke="url(#paint25_linear_1377_3636)" stroke-width="1.5"/>
<ellipse opacity="0.5" cx="171.981" cy="148.592" rx="54.7772" ry="74.0228" transform="rotate(-12.3725 171.981 148.592)" stroke="url(#paint26_linear_1377_3636)" stroke-width="1.5"/>
<ellipse opacity="0.5" cx="54.7772" cy="74.0228" rx="54.7772" ry="74.0228" transform="matrix(-0.976775 0.214267 0.214267 0.976775 316.636 41.0776)" stroke="url(#paint27_linear_1377_3636)" stroke-width="1.5"/>
<ellipse opacity="0.5" cx="181.572" cy="144.598" rx="44.5541" ry="72.1763" transform="rotate(-12.3725 181.572 144.598)" stroke="url(#paint28_linear_1377_3636)" stroke-width="1.5"/>
<ellipse opacity="0.5" cx="44.5541" cy="72.1763" rx="44.5541" ry="72.1763" transform="matrix(-0.976775 0.214267 0.214267 0.976775 296.664 45.4575)" stroke="url(#paint29_linear_1377_3636)" stroke-width="1.5"/>
<ellipse opacity="0.5" cx="191.029" cy="141.492" rx="34.6503" ry="71.169" transform="rotate(-12.3725 191.029 141.492)" stroke="url(#paint30_linear_1377_3636)" stroke-width="1.5"/>
<ellipse opacity="0.5" cx="34.6503" cy="71.169" rx="34.6503" ry="71.169" transform="matrix(-0.976775 0.214267 0.214267 0.976775 277.317 49.7016)" stroke="url(#paint31_linear_1377_3636)" stroke-width="1.5"/>
<ellipse opacity="0.5" cx="200.836" cy="137.621" rx="24.2429" ry="69.4906" transform="rotate(-12.3725 200.836 137.621)" stroke="url(#paint32_linear_1377_3636)" stroke-width="1.5"/>
<ellipse opacity="0.5" cx="24.2429" cy="69.4906" rx="24.2429" ry="69.4906" transform="matrix(-0.976775 0.214267 0.214267 0.976775 256.985 54.1626)" stroke="url(#paint33_linear_1377_3636)" stroke-width="1.5"/>
<ellipse opacity="0.5" cx="209.93" cy="134.424" rx="14.6746" ry="68.3153" transform="rotate(-12.3725 209.93 134.424)" stroke="url(#paint34_linear_1377_3636)" stroke-width="1.5"/>
<ellipse opacity="0.5" cx="14.6746" cy="68.3153" rx="14.6746" ry="68.3153" transform="matrix(-0.976775 0.214267 0.214267 0.976775 238.294 58.2622)" stroke="url(#paint35_linear_1377_3636)" stroke-width="1.5"/>
<ellipse opacity="0.5" cx="219.477" cy="132.33" rx="4.90022" ry="68.3153" transform="rotate(-12.3725 219.477 132.33)" stroke="url(#paint36_linear_1377_3636)" stroke-width="1.5"/>
<ellipse opacity="0.5" cx="4.90022" cy="68.3153" rx="4.90022" ry="68.3153" transform="matrix(-0.976775 0.214267 0.214267 0.976775 219.199 62.4507)" stroke="url(#paint37_linear_1377_3636)" stroke-width="1.5"/>
<defs>
<linearGradient id="paint0_linear_1377_3636" x1="213.342" y1="46.3821" x2="213.342" y2="306.31" gradientUnits="userSpaceOnUse">
<stop stop-color="#A4A4A4" stop-opacity="0.6"/>
<stop offset="0.471154" stop-color="#E1E1E1"/>
<stop offset="1" stop-color="#A4A4A4" stop-opacity="0.6"/>
</linearGradient>
<linearGradient id="paint1_linear_1377_3636" x1="20.3247" y1="0" x2="20.3247" y2="259.928" gradientUnits="userSpaceOnUse">
<stop stop-color="#A4A4A4" stop-opacity="0.6"/>
<stop offset="0.471154" stop-color="#E1E1E1"/>
<stop offset="1" stop-color="#A4A4A4" stop-opacity="0.6"/>
</linearGradient>
<linearGradient id="paint2_linear_1377_3636" x1="179.689" y1="53.7657" x2="179.689" y2="313.694" gradientUnits="userSpaceOnUse">
<stop stop-color="#A4A4A4" stop-opacity="0.6"/>
<stop offset="0.471154" stop-color="#E1E1E1"/>
<stop offset="1" stop-color="#A4A4A4" stop-opacity="0.6"/>
</linearGradient>
<linearGradient id="paint3_linear_1377_3636" x1="54.7772" y1="0" x2="54.7772" y2="259.928" gradientUnits="userSpaceOnUse">
<stop stop-color="#A4A4A4" stop-opacity="0.6"/>
<stop offset="0.471154" stop-color="#E1E1E1"/>
<stop offset="1" stop-color="#A4A4A4" stop-opacity="0.6"/>
</linearGradient>
<linearGradient id="paint4_linear_1377_3636" x1="154.628" y1="59.2622" x2="154.628" y2="319.19" gradientUnits="userSpaceOnUse">
<stop stop-color="#A4A4A4" stop-opacity="0.6"/>
<stop offset="0.471154" stop-color="#E1E1E1"/>
<stop offset="1" stop-color="#A4A4A4" stop-opacity="0.6"/>
</linearGradient>
<linearGradient id="paint5_linear_1377_3636" x1="80.4349" y1="0" x2="80.4349" y2="259.928" gradientUnits="userSpaceOnUse">
<stop stop-color="#A4A4A4" stop-opacity="0.6"/>
<stop offset="0.471154" stop-color="#E1E1E1"/>
<stop offset="1" stop-color="#A4A4A4" stop-opacity="0.6"/>
</linearGradient>
<linearGradient id="paint6_linear_1377_3636" x1="137.353" y1="70.2264" x2="137.353" y2="315.803" gradientUnits="userSpaceOnUse">
<stop stop-color="#A4A4A4" stop-opacity="0.6"/>
<stop offset="0.471154" stop-color="#E1E1E1"/>
<stop offset="1" stop-color="#A4A4A4" stop-opacity="0.6"/>
</linearGradient>
<linearGradient id="paint7_linear_1377_3636" x1="98.1202" y1="0" x2="98.1202" y2="245.577" gradientUnits="userSpaceOnUse">
<stop stop-color="#A4A4A4" stop-opacity="0.6"/>
<stop offset="0.471154" stop-color="#E1E1E1"/>
<stop offset="1" stop-color="#A4A4A4" stop-opacity="0.6"/>
</linearGradient>
<linearGradient id="paint8_linear_1377_3636" x1="130.521" y1="75.148" x2="130.521" y2="313.882" gradientUnits="userSpaceOnUse">
<stop stop-color="#A4A4A4" stop-opacity="0.6"/>
<stop offset="0.471154" stop-color="#E1E1E1"/>
<stop offset="1" stop-color="#A4A4A4" stop-opacity="0.6"/>
</linearGradient>
<linearGradient id="paint9_linear_1377_3636" x1="105.115" y1="0" x2="105.115" y2="238.734" gradientUnits="userSpaceOnUse">
<stop stop-color="#A4A4A4" stop-opacity="0.6"/>
<stop offset="0.471154" stop-color="#E1E1E1"/>
<stop offset="1" stop-color="#A4A4A4" stop-opacity="0.6"/>
</linearGradient>
<linearGradient id="paint10_linear_1377_3636" x1="132.891" y1="78.6904" x2="132.891" y2="299.653" gradientUnits="userSpaceOnUse">
<stop stop-color="#A4A4A4" stop-opacity="0.6"/>
<stop offset="0.471154" stop-color="#E1E1E1"/>
<stop offset="1" stop-color="#A4A4A4" stop-opacity="0.6"/>
</linearGradient>
<linearGradient id="paint11_linear_1377_3636" x1="101.655" y1="0" x2="101.655" y2="220.963" gradientUnits="userSpaceOnUse">
<stop stop-color="#A4A4A4" stop-opacity="0.6"/>
<stop offset="0.471154" stop-color="#E1E1E1"/>
<stop offset="1" stop-color="#A4A4A4" stop-opacity="0.6"/>
</linearGradient>
<linearGradient id="paint12_linear_1377_3636" x1="129.78" y1="82.1768" x2="129.78" y2="287.267" gradientUnits="userSpaceOnUse">
<stop stop-color="#A4A4A4" stop-opacity="0.6"/>
<stop offset="0.471154" stop-color="#E1E1E1"/>
<stop offset="1" stop-color="#A4A4A4" stop-opacity="0.6"/>
</linearGradient>
<linearGradient id="paint13_linear_1377_3636" x1="103.741" y1="0" x2="103.741" y2="205.09" gradientUnits="userSpaceOnUse">
<stop stop-color="#A4A4A4" stop-opacity="0.6"/>
<stop offset="0.471154" stop-color="#E1E1E1"/>
<stop offset="1" stop-color="#A4A4A4" stop-opacity="0.6"/>
</linearGradient>
<linearGradient id="paint14_linear_1377_3636" x1="128.918" y1="84.5428" x2="128.918" y2="277.042" gradientUnits="userSpaceOnUse">
<stop stop-color="#A4A4A4" stop-opacity="0.6"/>
<stop offset="0.471154" stop-color="#E1E1E1"/>
<stop offset="1" stop-color="#A4A4A4" stop-opacity="0.6"/>
</linearGradient>
<linearGradient id="paint15_linear_1377_3636" x1="103.741" y1="0" x2="103.741" y2="192.499" gradientUnits="userSpaceOnUse">
<stop stop-color="#A4A4A4" stop-opacity="0.6"/>
<stop offset="0.471154" stop-color="#E1E1E1"/>
<stop offset="1" stop-color="#A4A4A4" stop-opacity="0.6"/>
</linearGradient>
<linearGradient id="paint16_linear_1377_3636" x1="131.129" y1="83.9303" x2="131.129" y2="265.548" gradientUnits="userSpaceOnUse">
<stop stop-color="#A4A4A4" stop-opacity="0.6"/>
<stop offset="0.471154" stop-color="#E1E1E1"/>
<stop offset="1" stop-color="#A4A4A4" stop-opacity="0.6"/>
</linearGradient>
<linearGradient id="paint17_linear_1377_3636" x1="100.284" y1="0" x2="100.284" y2="181.617" gradientUnits="userSpaceOnUse">
<stop stop-color="#A4A4A4" stop-opacity="0.6"/>
<stop offset="0.471154" stop-color="#E1E1E1"/>
<stop offset="1" stop-color="#A4A4A4" stop-opacity="0.6"/>
</linearGradient>
<linearGradient id="paint18_linear_1377_3636" x1="137.427" y1="82.4295" x2="137.427" y2="253.975" gradientUnits="userSpaceOnUse">
<stop stop-color="#A4A4A4" stop-opacity="0.6"/>
<stop offset="0.471154" stop-color="#E1E1E1"/>
<stop offset="1" stop-color="#A4A4A4" stop-opacity="0.6"/>
</linearGradient>
<linearGradient id="paint19_linear_1377_3636" x1="92.7303" y1="0" x2="92.7303" y2="171.546" gradientUnits="userSpaceOnUse">
<stop stop-color="#A4A4A4" stop-opacity="0.6"/>
<stop offset="0.471154" stop-color="#E1E1E1"/>
<stop offset="1" stop-color="#A4A4A4" stop-opacity="0.6"/>
</linearGradient>
<linearGradient id="paint20_linear_1377_3636" x1="144.399" y1="80.7982" x2="144.399" y2="243.951" gradientUnits="userSpaceOnUse">
<stop stop-color="#A4A4A4" stop-opacity="0.6"/>
<stop offset="0.471154" stop-color="#E1E1E1"/>
<stop offset="1" stop-color="#A4A4A4" stop-opacity="0.6"/>
</linearGradient>
<linearGradient id="paint21_linear_1377_3636" x1="84.673" y1="0" x2="84.673" y2="163.152" gradientUnits="userSpaceOnUse">
<stop stop-color="#A4A4A4" stop-opacity="0.6"/>
<stop offset="0.471154" stop-color="#E1E1E1"/>
<stop offset="1" stop-color="#A4A4A4" stop-opacity="0.6"/>
</linearGradient>
<linearGradient id="paint22_linear_1377_3636" x1="153.317" y1="78.758" x2="153.317" y2="234.861" gradientUnits="userSpaceOnUse">
<stop stop-color="#A4A4A4" stop-opacity="0.6"/>
<stop offset="0.471154" stop-color="#E1E1E1"/>
<stop offset="1" stop-color="#A4A4A4" stop-opacity="0.6"/>
</linearGradient>
<linearGradient id="paint23_linear_1377_3636" x1="74.7692" y1="0" x2="74.7692" y2="156.103" gradientUnits="userSpaceOnUse">
<stop stop-color="#A4A4A4" stop-opacity="0.6"/>
<stop offset="0.471154" stop-color="#E1E1E1"/>
<stop offset="1" stop-color="#A4A4A4" stop-opacity="0.6"/>
</linearGradient>
<linearGradient id="paint24_linear_1377_3636" x1="162.447" y1="76.7329" x2="162.447" y2="230.821" gradientUnits="userSpaceOnUse">
<stop stop-color="#A4A4A4" stop-opacity="0.6"/>
<stop offset="0.471154" stop-color="#E1E1E1"/>
<stop offset="1" stop-color="#A4A4A4" stop-opacity="0.6"/>
</linearGradient>
<linearGradient id="paint25_linear_1377_3636" x1="65.2009" y1="0" x2="65.2009" y2="154.088" gradientUnits="userSpaceOnUse">
<stop stop-color="#A4A4A4" stop-opacity="0.6"/>
<stop offset="0.471154" stop-color="#E1E1E1"/>
<stop offset="1" stop-color="#A4A4A4" stop-opacity="0.6"/>
</linearGradient>
<linearGradient id="paint26_linear_1377_3636" x1="171.981" y1="74.5688" x2="171.981" y2="222.614" gradientUnits="userSpaceOnUse">
<stop stop-color="#A4A4A4" stop-opacity="0.6"/>
<stop offset="0.471154" stop-color="#E1E1E1"/>
<stop offset="1" stop-color="#A4A4A4" stop-opacity="0.6"/>
</linearGradient>
<linearGradient id="paint27_linear_1377_3636" x1="54.7772" y1="0" x2="54.7772" y2="148.046" gradientUnits="userSpaceOnUse">
<stop stop-color="#A4A4A4" stop-opacity="0.6"/>
<stop offset="0.471154" stop-color="#E1E1E1"/>
<stop offset="1" stop-color="#A4A4A4" stop-opacity="0.6"/>
</linearGradient>
<linearGradient id="paint28_linear_1377_3636" x1="181.572" y1="72.4213" x2="181.572" y2="216.774" gradientUnits="userSpaceOnUse">
<stop stop-color="#A4A4A4" stop-opacity="0.6"/>
<stop offset="0.471154" stop-color="#E1E1E1"/>
<stop offset="1" stop-color="#A4A4A4" stop-opacity="0.6"/>
</linearGradient>
<linearGradient id="paint29_linear_1377_3636" x1="44.5541" y1="0" x2="44.5541" y2="144.353" gradientUnits="userSpaceOnUse">
<stop stop-color="#A4A4A4" stop-opacity="0.6"/>
<stop offset="0.471154" stop-color="#E1E1E1"/>
<stop offset="1" stop-color="#A4A4A4" stop-opacity="0.6"/>
</linearGradient>
<linearGradient id="paint30_linear_1377_3636" x1="191.029" y1="70.3226" x2="191.029" y2="212.661" gradientUnits="userSpaceOnUse">
<stop stop-color="#A4A4A4" stop-opacity="0.6"/>
<stop offset="0.471154" stop-color="#E1E1E1"/>
<stop offset="1" stop-color="#A4A4A4" stop-opacity="0.6"/>
</linearGradient>
<linearGradient id="paint31_linear_1377_3636" x1="34.6503" y1="0" x2="34.6503" y2="142.338" gradientUnits="userSpaceOnUse">
<stop stop-color="#A4A4A4" stop-opacity="0.6"/>
<stop offset="0.471154" stop-color="#E1E1E1"/>
<stop offset="1" stop-color="#A4A4A4" stop-opacity="0.6"/>
</linearGradient>
<linearGradient id="paint32_linear_1377_3636" x1="200.836" y1="68.1306" x2="200.836" y2="207.112" gradientUnits="userSpaceOnUse">
<stop stop-color="#A4A4A4" stop-opacity="0.6"/>
<stop offset="0.471154" stop-color="#E1E1E1"/>
<stop offset="1" stop-color="#A4A4A4" stop-opacity="0.6"/>
</linearGradient>
<linearGradient id="paint33_linear_1377_3636" x1="24.2429" y1="0" x2="24.2429" y2="138.981" gradientUnits="userSpaceOnUse">
<stop stop-color="#A4A4A4" stop-opacity="0.6"/>
<stop offset="0.471154" stop-color="#E1E1E1"/>
<stop offset="1" stop-color="#A4A4A4" stop-opacity="0.6"/>
</linearGradient>
<linearGradient id="paint34_linear_1377_3636" x1="209.93" y1="66.1084" x2="209.93" y2="202.739" gradientUnits="userSpaceOnUse">
<stop stop-color="#A4A4A4" stop-opacity="0.6"/>
<stop offset="0.471154" stop-color="#E1E1E1"/>
<stop offset="1" stop-color="#A4A4A4" stop-opacity="0.6"/>
</linearGradient>
<linearGradient id="paint35_linear_1377_3636" x1="14.6746" y1="0" x2="14.6746" y2="136.631" gradientUnits="userSpaceOnUse">
<stop stop-color="#A4A4A4" stop-opacity="0.6"/>
<stop offset="0.471154" stop-color="#E1E1E1"/>
<stop offset="1" stop-color="#A4A4A4" stop-opacity="0.6"/>
</linearGradient>
<linearGradient id="paint36_linear_1377_3636" x1="219.477" y1="64.0143" x2="219.477" y2="200.645" gradientUnits="userSpaceOnUse">
<stop stop-color="#A4A4A4" stop-opacity="0.6"/>
<stop offset="0.471154" stop-color="#E1E1E1"/>
<stop offset="1" stop-color="#A4A4A4" stop-opacity="0.6"/>
</linearGradient>
<linearGradient id="paint37_linear_1377_3636" x1="4.90022" y1="0" x2="4.90022" y2="136.631" gradientUnits="userSpaceOnUse">
<stop stop-color="#A4A4A4" stop-opacity="0.6"/>
<stop offset="0.471154" stop-color="#E1E1E1"/>
<stop offset="1" stop-color="#A4A4A4" stop-opacity="0.6"/>
</linearGradient>
</defs>
</svg>
