<svg width="618" height="527" viewBox="0 0 618 527" fill="none" xmlns="http://www.w3.org/2000/svg">
<path opacity="0.5" d="M514.391 384.644L607.223 220.565L507.996 230.188L460.998 324.923L514.391 384.644Z" stroke="url(#paint0_linear_1805_3884)" stroke-width="1.5"/>
<path opacity="0.5" d="M511.743 382.768L599.951 210.803L500.578 230.19L455.605 327.348L511.743 382.768Z" stroke="url(#paint1_linear_1805_3884)" stroke-width="1.5"/>
<path opacity="0.5" d="M508.041 381.267L591.953 201.347L492.641 230.482L449.421 329.252L508.041 381.267Z" stroke="url(#paint2_linear_1805_3884)" stroke-width="1.5"/>
<path opacity="0.5" d="M503.891 379.386L582.019 192.712L484.959 231.38L444.076 332.301L503.891 379.386Z" stroke="url(#paint3_linear_1805_3884)" stroke-width="1.5"/>
<path opacity="0.5" d="M498.987 376.398L572.117 184.491L477.294 232.486L437.628 335.102L498.987 376.398Z" stroke="url(#paint4_linear_1805_3884)" stroke-width="1.5"/>
<path opacity="0.5" d="M493.637 373.027L561.663 176.647L468.731 233.828L430.165 337.691L493.637 373.027Z" stroke="url(#paint5_linear_1805_3884)" stroke-width="1.5"/>
<path opacity="0.5" d="M486.817 370.063L550.046 169.935L460.391 235.36L423.112 340.748L486.817 370.063Z" stroke="url(#paint6_linear_1805_3884)" stroke-width="1.5"/>
<path opacity="0.5" d="M478.916 366.06L537.618 163.497L452.447 237.154L415.437 343.854L478.916 366.06Z" stroke="url(#paint7_linear_1805_3884)" stroke-width="1.5"/>
<path opacity="0.5" d="M470.154 361.71L524.423 158.955L443.621 239.394L407.453 347.236L470.154 361.71Z" stroke="url(#paint8_linear_1805_3884)" stroke-width="1.5"/>
<path opacity="0.5" d="M459.193 354.864L510.952 154.099L434.966 241.702L398.758 350.631L459.193 354.864Z" stroke="url(#paint9_linear_1805_3884)" stroke-width="1.5"/>
<path opacity="0.5" d="M445.58 351.353L499.919 151.634L425.27 246.093L389.878 353.748L445.58 351.353Z" stroke="url(#paint10_linear_1805_3884)" stroke-width="1.5"/>
<path opacity="0.5" d="M431.235 349.151L482.994 148.386L416.639 247.107L379.647 357.723L431.235 349.151Z" stroke="url(#paint11_linear_1805_3884)" stroke-width="1.5"/>
<path opacity="0.5" d="M419.184 331.639L468.097 146.561L407.307 250.845L369.454 361.112L419.184 331.639Z" stroke="url(#paint12_linear_1805_3884)" stroke-width="1.5"/>
<path opacity="0.5" d="M401.921 322.04L453.747 145.36L397.805 253.512L357.928 365.064L401.921 322.04Z" stroke="url(#paint13_linear_1805_3884)" stroke-width="1.5"/>
<path opacity="0.5" d="M383.337 311.003L439.357 145.746L389.171 255.528L345.953 369.636L383.337 311.003Z" stroke="url(#paint14_linear_1805_3884)" stroke-width="1.5"/>
<path opacity="0.5" d="M368.87 266.048L411.154 148.555L342.022 286.547L320.597 376.305L368.87 266.048Z" stroke="url(#paint15_linear_1805_3884)" stroke-width="1.5"/>
<path opacity="0.5" d="M359.671 267.234L397.516 151.049L320.197 275.1L306.767 379.022L359.671 267.234Z" stroke="url(#paint16_linear_1805_3884)" stroke-width="1.5"/>
<path opacity="0.5" d="M348.71 276.225L384.724 152.683L298.312 261.322L291.565 383.389L348.71 276.225Z" stroke="url(#paint17_linear_1805_3884)" stroke-width="1.5"/>
<path opacity="0.5" d="M339.704 276.186L371.646 156.507L277.15 247.738L276.335 386.341L339.704 276.186Z" stroke="url(#paint18_linear_1805_3884)" stroke-width="1.5"/>
<path opacity="0.5" d="M329.87 279.921L359.004 159.506L255.607 234.601L260.849 388.689L329.87 279.921Z" stroke="url(#paint19_linear_1805_3884)" stroke-width="1.5"/>
<path opacity="0.5" d="M320.281 283.055L347.72 163.356L236.48 221.44L244.676 390.258L320.281 283.055Z" stroke="url(#paint20_linear_1805_3884)" stroke-width="1.5"/>
<path opacity="0.5" d="M310.971 285.498L337.216 166.519L218.467 209.733L227.881 391.875L310.971 285.498Z" stroke="url(#paint21_linear_1805_3884)" stroke-width="1.5"/>
<path opacity="0.5" d="M300.275 289.385L326.521 170.406L201.783 198.463L211.458 391.837L300.275 289.385Z" stroke="url(#paint22_linear_1805_3884)" stroke-width="1.5"/>
<path opacity="0.5" d="M290.959 293.329L316.702 174.848L187.49 188.462L194.378 391.934L290.959 293.329Z" stroke="url(#paint23_linear_1805_3884)" stroke-width="1.5"/>
<path opacity="0.5" d="M281.558 296.738L307.797 179.259L175.468 179.783L177.785 390.826L281.558 296.738Z" stroke="url(#paint24_linear_1805_3884)" stroke-width="1.5"/>
<path opacity="0.5" d="M271.808 300.51L298.927 183.088L165.682 172.014L160.903 388.201L271.808 300.51Z" stroke="url(#paint25_linear_1805_3884)" stroke-width="1.5"/>
<path opacity="0.5" d="M263.068 302.784L291.302 186.816L157.775 165.302L146.098 384.91L263.068 302.784Z" stroke="url(#paint26_linear_1805_3884)" stroke-width="1.5"/>
<path opacity="0.5" d="M253.775 305.434L283.296 190.989L150.986 159.544L128.414 381.053L253.775 305.434Z" stroke="url(#paint27_linear_1805_3884)" stroke-width="1.5"/>
<path opacity="0.5" d="M245.07 307.621L276.844 194.791L146.468 155.107L113.354 376.657L245.07 307.621Z" stroke="url(#paint28_linear_1805_3884)" stroke-width="1.5"/>
<path opacity="0.5" d="M236.002 309.962L269.876 198.383L142.793 151.313L99.1118 370.987L236.002 309.962Z" stroke="url(#paint29_linear_1805_3884)" stroke-width="1.5"/>
<path opacity="0.5" d="M227.613 310.873L263.579 202.047L141.27 148.389L86.2757 363.08L227.613 310.873Z" stroke="url(#paint30_linear_1805_3884)" stroke-width="1.5"/>
<path opacity="0.5" d="M219.24 312.494L257.77 205.007L140.626 146.024L73.4321 357.176L219.24 312.494Z" stroke="url(#paint31_linear_1805_3884)" stroke-width="1.5"/>
<path opacity="0.5" d="M211.401 313.529L252.597 208.124L139.942 144.244L62.0676 347.862L211.401 313.529Z" stroke="url(#paint32_linear_1805_3884)" stroke-width="1.5"/>
<path opacity="0.5" d="M203.031 314.148L247.427 210.741L140.414 142.832L52.1339 339.226L203.031 314.148Z" stroke="url(#paint33_linear_1805_3884)" stroke-width="1.5"/>
<path opacity="0.5" d="M187.813 314.599L242.844 213.396L141.35 142.008L42.7747 329.421L187.813 314.599Z" stroke="url(#paint34_linear_1805_3884)" stroke-width="1.5"/>
<path opacity="0.5" d="M179.72 315.028L238.589 215.981L142.165 141.234L35.6304 318.105L179.72 315.028Z" stroke="url(#paint35_linear_1805_3884)" stroke-width="1.5"/>
<path opacity="0.5" d="M172.892 314.067L234.094 218.17L143.289 140.688L28.3094 307.722L172.892 314.067Z" stroke="url(#paint36_linear_1805_3884)" stroke-width="1.5"/>
<path opacity="0.5" d="M165.444 312.654L229.737 220.014L144.479 140.468L23.321 296.278L165.444 312.654Z" stroke="url(#paint37_linear_1805_3884)" stroke-width="1.5"/>
<path opacity="0.5" d="M159.055 310.366L225.552 222.429L145.879 140.233L18.7672 284.51L159.055 310.366Z" stroke="url(#paint38_linear_1805_3884)" stroke-width="1.5"/>
<path opacity="0.5" d="M425.274 146.857L366.845 291.091L333.324 373.342L377.449 264.914L425.274 146.857Z" stroke="url(#paint39_linear_1805_3884)" stroke-width="1.5"/>
<defs>
<linearGradient id="paint0_linear_1805_3884" x1="562.575" y1="202.479" x2="492.39" y2="375.731" gradientUnits="userSpaceOnUse">
<stop stop-color="#A4A4A4" stop-opacity="0.6"/>
<stop offset="0.471154" stop-color="#E1E1E1"/>
<stop offset="1" stop-color="#A4A4A4" stop-opacity="0.6"/>
</linearGradient>
<linearGradient id="paint1_linear_1805_3884" x1="558.231" y1="193.902" x2="485.953" y2="372.321" gradientUnits="userSpaceOnUse">
<stop stop-color="#A4A4A4" stop-opacity="0.6"/>
<stop offset="0.471154" stop-color="#E1E1E1"/>
<stop offset="1" stop-color="#A4A4A4" stop-opacity="0.6"/>
</linearGradient>
<linearGradient id="paint2_linear_1805_3884" x1="552.989" y1="185.562" x2="478.548" y2="369.32" gradientUnits="userSpaceOnUse">
<stop stop-color="#A4A4A4" stop-opacity="0.6"/>
<stop offset="0.471154" stop-color="#E1E1E1"/>
<stop offset="1" stop-color="#A4A4A4" stop-opacity="0.6"/>
</linearGradient>
<linearGradient id="paint3_linear_1805_3884" x1="547.059" y1="178.549" x2="471.083" y2="366.096" gradientUnits="userSpaceOnUse">
<stop stop-color="#A4A4A4" stop-opacity="0.6"/>
<stop offset="0.471154" stop-color="#E1E1E1"/>
<stop offset="1" stop-color="#A4A4A4" stop-opacity="0.6"/>
</linearGradient>
<linearGradient id="paint4_linear_1805_3884" x1="541.721" y1="172.177" x2="464.629" y2="362.48" gradientUnits="userSpaceOnUse">
<stop stop-color="#A4A4A4" stop-opacity="0.6"/>
<stop offset="0.471154" stop-color="#E1E1E1"/>
<stop offset="1" stop-color="#A4A4A4" stop-opacity="0.6"/>
</linearGradient>
<linearGradient id="paint5_linear_1805_3884" x1="536.648" y1="166.513" x2="458.719" y2="358.882" gradientUnits="userSpaceOnUse">
<stop stop-color="#A4A4A4" stop-opacity="0.6"/>
<stop offset="0.471154" stop-color="#E1E1E1"/>
<stop offset="1" stop-color="#A4A4A4" stop-opacity="0.6"/>
</linearGradient>
<linearGradient id="paint6_linear_1805_3884" x1="530.586" y1="162.052" x2="452.029" y2="355.971" gradientUnits="userSpaceOnUse">
<stop stop-color="#A4A4A4" stop-opacity="0.6"/>
<stop offset="0.471154" stop-color="#E1E1E1"/>
<stop offset="1" stop-color="#A4A4A4" stop-opacity="0.6"/>
</linearGradient>
<linearGradient id="paint7_linear_1805_3884" x1="523.883" y1="157.933" x2="443.897" y2="355.383" gradientUnits="userSpaceOnUse">
<stop stop-color="#A4A4A4" stop-opacity="0.6"/>
<stop offset="0.471154" stop-color="#E1E1E1"/>
<stop offset="1" stop-color="#A4A4A4" stop-opacity="0.6"/>
</linearGradient>
<linearGradient id="paint8_linear_1805_3884" x1="515.683" y1="155.414" x2="433.673" y2="357.858" gradientUnits="userSpaceOnUse">
<stop stop-color="#A4A4A4" stop-opacity="0.6"/>
<stop offset="0.471154" stop-color="#E1E1E1"/>
<stop offset="1" stop-color="#A4A4A4" stop-opacity="0.6"/>
</linearGradient>
<linearGradient id="paint9_linear_1805_3884" x1="506.259" y1="152.198" x2="422.051" y2="360.067" gradientUnits="userSpaceOnUse">
<stop stop-color="#A4A4A4" stop-opacity="0.6"/>
<stop offset="0.471154" stop-color="#E1E1E1"/>
<stop offset="1" stop-color="#A4A4A4" stop-opacity="0.6"/>
</linearGradient>
<linearGradient id="paint10_linear_1805_3884" x1="495.702" y1="149.926" x2="409.855" y2="361.841" gradientUnits="userSpaceOnUse">
<stop stop-color="#A4A4A4" stop-opacity="0.6"/>
<stop offset="0.471154" stop-color="#E1E1E1"/>
<stop offset="1" stop-color="#A4A4A4" stop-opacity="0.6"/>
</linearGradient>
<linearGradient id="paint11_linear_1805_3884" x1="484.372" y1="148.944" x2="396.955" y2="364.735" gradientUnits="userSpaceOnUse">
<stop stop-color="#A4A4A4" stop-opacity="0.6"/>
<stop offset="0.471154" stop-color="#E1E1E1"/>
<stop offset="1" stop-color="#A4A4A4" stop-opacity="0.6"/>
</linearGradient>
<linearGradient id="paint12_linear_1805_3884" x1="471.326" y1="147.869" x2="382.758" y2="366.502" gradientUnits="userSpaceOnUse">
<stop stop-color="#A4A4A4" stop-opacity="0.6"/>
<stop offset="0.471154" stop-color="#E1E1E1"/>
<stop offset="1" stop-color="#A4A4A4" stop-opacity="0.6"/>
</linearGradient>
<linearGradient id="paint13_linear_1805_3884" x1="457.019" y1="146.685" x2="367.056" y2="368.762" gradientUnits="userSpaceOnUse">
<stop stop-color="#A4A4A4" stop-opacity="0.6"/>
<stop offset="0.471154" stop-color="#E1E1E1"/>
<stop offset="1" stop-color="#A4A4A4" stop-opacity="0.6"/>
</linearGradient>
<linearGradient id="paint14_linear_1805_3884" x1="441.596" y1="146.653" x2="350.516" y2="371.485" gradientUnits="userSpaceOnUse">
<stop stop-color="#A4A4A4" stop-opacity="0.6"/>
<stop offset="0.471154" stop-color="#E1E1E1"/>
<stop offset="1" stop-color="#A4A4A4" stop-opacity="0.6"/>
</linearGradient>
<linearGradient id="paint15_linear_1805_3884" x1="407.753" y1="147.177" x2="315.732" y2="374.334" gradientUnits="userSpaceOnUse">
<stop stop-color="#A4A4A4" stop-opacity="0.6"/>
<stop offset="0.471154" stop-color="#E1E1E1"/>
<stop offset="1" stop-color="#A4A4A4" stop-opacity="0.6"/>
</linearGradient>
<linearGradient id="paint16_linear_1805_3884" x1="389.852" y1="147.944" x2="297.726" y2="375.359" gradientUnits="userSpaceOnUse">
<stop stop-color="#A4A4A4" stop-opacity="0.6"/>
<stop offset="0.471154" stop-color="#E1E1E1"/>
<stop offset="1" stop-color="#A4A4A4" stop-opacity="0.6"/>
</linearGradient>
<linearGradient id="paint17_linear_1805_3884" x1="372.539" y1="147.747" x2="279.123" y2="378.348" gradientUnits="userSpaceOnUse">
<stop stop-color="#A4A4A4" stop-opacity="0.6"/>
<stop offset="0.471154" stop-color="#E1E1E1"/>
<stop offset="1" stop-color="#A4A4A4" stop-opacity="0.6"/>
</linearGradient>
<linearGradient id="paint18_linear_1805_3884" x1="354.036" y1="149.373" x2="260.62" y2="379.975" gradientUnits="userSpaceOnUse">
<stop stop-color="#A4A4A4" stop-opacity="0.6"/>
<stop offset="0.471154" stop-color="#E1E1E1"/>
<stop offset="1" stop-color="#A4A4A4" stop-opacity="0.6"/>
</linearGradient>
<linearGradient id="paint19_linear_1805_3884" x1="336.099" y1="150.227" x2="242.507" y2="381.259" gradientUnits="userSpaceOnUse">
<stop stop-color="#A4A4A4" stop-opacity="0.6"/>
<stop offset="0.471154" stop-color="#E1E1E1"/>
<stop offset="1" stop-color="#A4A4A4" stop-opacity="0.6"/>
</linearGradient>
<linearGradient id="paint20_linear_1805_3884" x1="319.089" y1="151.758" x2="225.602" y2="382.531" gradientUnits="userSpaceOnUse">
<stop stop-color="#A4A4A4" stop-opacity="0.6"/>
<stop offset="0.471154" stop-color="#E1E1E1"/>
<stop offset="1" stop-color="#A4A4A4" stop-opacity="0.6"/>
</linearGradient>
<linearGradient id="paint21_linear_1805_3884" x1="303.16" y1="152.723" x2="209.325" y2="384.357" gradientUnits="userSpaceOnUse">
<stop stop-color="#A4A4A4" stop-opacity="0.6"/>
<stop offset="0.471154" stop-color="#E1E1E1"/>
<stop offset="1" stop-color="#A4A4A4" stop-opacity="0.6"/>
</linearGradient>
<linearGradient id="paint22_linear_1805_3884" x1="287.255" y1="154.499" x2="193.978" y2="384.756" gradientUnits="userSpaceOnUse">
<stop stop-color="#A4A4A4" stop-opacity="0.6"/>
<stop offset="0.471154" stop-color="#E1E1E1"/>
<stop offset="1" stop-color="#A4A4A4" stop-opacity="0.6"/>
</linearGradient>
<linearGradient id="paint23_linear_1805_3884" x1="273.131" y1="157.197" x2="180.342" y2="386.248" gradientUnits="userSpaceOnUse">
<stop stop-color="#A4A4A4" stop-opacity="0.6"/>
<stop offset="0.471154" stop-color="#E1E1E1"/>
<stop offset="1" stop-color="#A4A4A4" stop-opacity="0.6"/>
</linearGradient>
<linearGradient id="paint24_linear_1805_3884" x1="260.222" y1="159.987" x2="168.27" y2="386.971" gradientUnits="userSpaceOnUse">
<stop stop-color="#A4A4A4" stop-opacity="0.6"/>
<stop offset="0.471154" stop-color="#E1E1E1"/>
<stop offset="1" stop-color="#A4A4A4" stop-opacity="0.6"/>
</linearGradient>
<linearGradient id="paint25_linear_1805_3884" x1="248.553" y1="162.681" x2="157.717" y2="386.911" gradientUnits="userSpaceOnUse">
<stop stop-color="#A4A4A4" stop-opacity="0.6"/>
<stop offset="0.471154" stop-color="#E1E1E1"/>
<stop offset="1" stop-color="#A4A4A4" stop-opacity="0.6"/>
</linearGradient>
<linearGradient id="paint26_linear_1805_3884" x1="238.258" y1="165.328" x2="148.853" y2="386.027" gradientUnits="userSpaceOnUse">
<stop stop-color="#A4A4A4" stop-opacity="0.6"/>
<stop offset="0.471154" stop-color="#E1E1E1"/>
<stop offset="1" stop-color="#A4A4A4" stop-opacity="0.6"/>
</linearGradient>
<linearGradient id="paint27_linear_1805_3884" x1="228.229" y1="168.682" x2="140.254" y2="385.85" gradientUnits="userSpaceOnUse">
<stop stop-color="#A4A4A4" stop-opacity="0.6"/>
<stop offset="0.471154" stop-color="#E1E1E1"/>
<stop offset="1" stop-color="#A4A4A4" stop-opacity="0.6"/>
</linearGradient>
<linearGradient id="paint28_linear_1805_3884" x1="219.926" y1="171.733" x2="133.59" y2="384.854" gradientUnits="userSpaceOnUse">
<stop stop-color="#A4A4A4" stop-opacity="0.6"/>
<stop offset="0.471154" stop-color="#E1E1E1"/>
<stop offset="1" stop-color="#A4A4A4" stop-opacity="0.6"/>
</linearGradient>
<linearGradient id="paint29_linear_1805_3884" x1="211.967" y1="174.925" x2="127.829" y2="382.621" gradientUnits="userSpaceOnUse">
<stop stop-color="#A4A4A4" stop-opacity="0.6"/>
<stop offset="0.471154" stop-color="#E1E1E1"/>
<stop offset="1" stop-color="#A4A4A4" stop-opacity="0.6"/>
</linearGradient>
<linearGradient id="paint30_linear_1805_3884" x1="206.627" y1="174.866" x2="124.164" y2="378.429" gradientUnits="userSpaceOnUse">
<stop stop-color="#A4A4A4" stop-opacity="0.6"/>
<stop offset="0.471154" stop-color="#E1E1E1"/>
<stop offset="1" stop-color="#A4A4A4" stop-opacity="0.6"/>
</linearGradient>
<linearGradient id="paint31_linear_1805_3884" x1="203.357" y1="171.436" x2="120.405" y2="376.205" gradientUnits="userSpaceOnUse">
<stop stop-color="#A4A4A4" stop-opacity="0.6"/>
<stop offset="0.471154" stop-color="#E1E1E1"/>
<stop offset="1" stop-color="#A4A4A4" stop-opacity="0.6"/>
</linearGradient>
<linearGradient id="paint32_linear_1805_3884" x1="200.09" y1="168.61" x2="118.254" y2="370.623" gradientUnits="userSpaceOnUse">
<stop stop-color="#A4A4A4" stop-opacity="0.6"/>
<stop offset="0.471154" stop-color="#E1E1E1"/>
<stop offset="1" stop-color="#A4A4A4" stop-opacity="0.6"/>
</linearGradient>
<linearGradient id="paint33_linear_1805_3884" x1="194.448" y1="164.721" x2="113.659" y2="364.15" gradientUnits="userSpaceOnUse">
<stop stop-color="#A4A4A4" stop-opacity="0.6"/>
<stop offset="0.471154" stop-color="#E1E1E1"/>
<stop offset="1" stop-color="#A4A4A4" stop-opacity="0.6"/>
</linearGradient>
<linearGradient id="paint34_linear_1805_3884" x1="187.634" y1="160.758" x2="108.519" y2="356.054" gradientUnits="userSpaceOnUse">
<stop stop-color="#A4A4A4" stop-opacity="0.6"/>
<stop offset="0.471154" stop-color="#E1E1E1"/>
<stop offset="1" stop-color="#A4A4A4" stop-opacity="0.6"/>
</linearGradient>
<linearGradient id="paint35_linear_1805_3884" x1="181.603" y1="157.211" x2="105.035" y2="346.221" gradientUnits="userSpaceOnUse">
<stop stop-color="#A4A4A4" stop-opacity="0.6"/>
<stop offset="0.471154" stop-color="#E1E1E1"/>
<stop offset="1" stop-color="#A4A4A4" stop-opacity="0.6"/>
</linearGradient>
<linearGradient id="paint36_linear_1805_3884" x1="175.451" y1="153.716" x2="101.115" y2="337.216" gradientUnits="userSpaceOnUse">
<stop stop-color="#A4A4A4" stop-opacity="0.6"/>
<stop offset="0.471154" stop-color="#E1E1E1"/>
<stop offset="1" stop-color="#A4A4A4" stop-opacity="0.6"/>
</linearGradient>
<linearGradient id="paint37_linear_1805_3884" x1="170.011" y1="150.811" x2="98.7099" y2="326.818" gradientUnits="userSpaceOnUse">
<stop stop-color="#A4A4A4" stop-opacity="0.6"/>
<stop offset="0.471154" stop-color="#E1E1E1"/>
<stop offset="1" stop-color="#A4A4A4" stop-opacity="0.6"/>
</linearGradient>
<linearGradient id="paint38_linear_1805_3884" x1="164.909" y1="147.942" x2="96.7825" y2="316.114" gradientUnits="userSpaceOnUse">
<stop stop-color="#A4A4A4" stop-opacity="0.6"/>
<stop offset="0.471154" stop-color="#E1E1E1"/>
<stop offset="1" stop-color="#A4A4A4" stop-opacity="0.6"/>
</linearGradient>
<linearGradient id="paint39_linear_1805_3884" x1="425.188" y1="146.823" x2="333.41" y2="373.377" gradientUnits="userSpaceOnUse">
<stop stop-color="#A4A4A4" stop-opacity="0.6"/>
<stop offset="0.471154" stop-color="#E1E1E1"/>
<stop offset="1" stop-color="#A4A4A4" stop-opacity="0.6"/>
</linearGradient>
</defs>
</svg>
